HIERARCHY
ROOT Hips
{
	OFFSET 0.000000 100.481300 0.000000
	CHANNELS 6 Xposition Yposition Zposition Xrotation Yrotation Zrotation 
	JOINT Spine
	{
		OFFSET -0.279200 12.230698 -2.892100
		CHANNELS 3 Xrotation Yrotation Zrotation
		JOINT Spine1
		{
			OFFSET -0.232667 10.192268 -1.242267
			CHANNELS 3 Xrotation Yrotation Zrotation
			JOINT Spine1_split
			{
				OFFSET -0.232667 10.192268 -1.242267
				CHANNELS 3 Xrotation Yrotation Zrotation
				JOINT Spine2
				{
					OFFSET -0.232667 10.192268 -1.242267
					CHANNELS 3 Xrotation Yrotation Zrotation
					JOINT Neck
					{
						OFFSET -0.418800 17.814194 8.416900
						CHANNELS 3 Xrotation Yrotation Zrotation
						JOINT Head
						{
							OFFSET 0.000000 7.031097 3.806800
							CHANNELS 3 Xrotation Yrotation Zrotation
							JOINT HeadTop_End
							{
								OFFSET 0.000000 24.646606 12.978600
								CHANNELS 3 Xrotation Yrotation Zrotation
								End Site
								{
									OFFSET 0.000000 0.000000 0.000000
								}
							}
						}
					}
					JOINT LeftShoulder
					{
						OFFSET 8.476499 7.247704 -3.868750
						CHANNELS 3 Xrotation Yrotation Zrotation
						JOINT LeftShoulder_split
						{
							OFFSET 8.476499 7.247704 -3.868750
							CHANNELS 3 Xrotation Yrotation Zrotation
							JOINT LeftArm
							{
								OFFSET 9.308998 -2.777710 0.208600
								CHANNELS 3 Xrotation Yrotation Zrotation
								JOINT LeftForeArm
								{
									OFFSET 29.972298 0.000000 0.000000
									CHANNELS 3 Xrotation Yrotation Zrotation
									JOINT LeftHand
									{
										OFFSET 26.026505 0.000000 0.000000
										CHANNELS 3 Xrotation Yrotation Zrotation
										JOINT LeftHandThumb1
										{
											OFFSET 12.240501 -7.147949 9.207150
											CHANNELS 3 Xrotation Yrotation Zrotation
											JOINT LeftHandThumb2
											{
												OFFSET 4.138618 -2.389435 2.389433
												CHANNELS 3 Xrotation Yrotation Zrotation
												JOINT LeftHandThumb3
												{
													OFFSET 2.726913 -1.574387 1.574386
													CHANNELS 3 Xrotation Yrotation Zrotation
													JOINT LeftHandThumb4
													{
														OFFSET 3.941010 -2.275345 2.275342
														CHANNELS 3 Xrotation Yrotation Zrotation
														End Site
														{
															OFFSET 0.000000 0.000000 0.000000
														}
													}
												}
											}
										}
										JOINT LeftHandIndex1
										{
											OFFSET 24.424698 -1.985611 5.953459
											CHANNELS 3 Xrotation Yrotation Zrotation
											JOINT LeftHandIndex2
											{
												OFFSET 6.426697 0.000000 0.000000
												CHANNELS 3 Xrotation Yrotation Zrotation
												JOINT LeftHandIndex3
												{
													OFFSET 5.337898 0.000000 0.000000
													CHANNELS 3 Xrotation Yrotation Zrotation
													JOINT LeftHandIndex4
													{
														OFFSET 4.409401 0.000000 0.000000
														CHANNELS 3 Xrotation Yrotation Zrotation
														End Site
														{
															OFFSET 0.000000 0.000000 0.000000
														}
													}
												}
											}
										}
										JOINT LeftHandMiddle1
										{
											OFFSET 23.810104 0.000000 0.000000
											CHANNELS 3 Xrotation Yrotation Zrotation
											JOINT LeftHandMiddle2
											{
												OFFSET 7.176498 0.000000 0.000000
												CHANNELS 3 Xrotation Yrotation Zrotation
												JOINT LeftHandMiddle3
												{
													OFFSET 6.774902 0.000000 0.000000
													CHANNELS 3 Xrotation Yrotation Zrotation
													JOINT LeftHandMiddle4
													{
														OFFSET 5.403328 0.000000 0.000000
														CHANNELS 3 Xrotation Yrotation Zrotation
														End Site
														{
															OFFSET 0.000000 0.000000 0.000000
														}
													}
												}
											}
										}
										JOINT LeftHandRing1
										{
											OFFSET 22.908401 -0.839279 -6.020567
											CHANNELS 3 Xrotation Yrotation Zrotation
											JOINT LeftHandRing2
											{
												OFFSET 6.337502 0.000000 0.000000
												CHANNELS 3 Xrotation Yrotation Zrotation
												JOINT LeftHandRing3
												{
													OFFSET 5.779297 0.000000 0.000000
													CHANNELS 3 Xrotation Yrotation Zrotation
													JOINT LeftHandRing4
													{
														OFFSET 4.965698 0.000000 0.000000
														CHANNELS 3 Xrotation Yrotation Zrotation
														End Site
														{
															OFFSET 0.000000 0.000000 0.000000
														}
													}
												}
											}
										}
										JOINT LeftHandPinky1
										{
											OFFSET 20.037003 -1.530319 -10.950146
											CHANNELS 3 Xrotation Yrotation Zrotation
											JOINT LeftHandPinky2
											{
												OFFSET 5.254700 0.000000 0.000000
												CHANNELS 3 Xrotation Yrotation Zrotation
												JOINT LeftHandPinky3
												{
													OFFSET 4.810204 0.000000 0.000000
													CHANNELS 3 Xrotation Yrotation Zrotation
													JOINT LeftHandPinky4
													{
														OFFSET 3.647202 0.000000 0.000000
														CHANNELS 3 Xrotation Yrotation Zrotation
														End Site
														{
															OFFSET 0.000000 0.000000 0.000000
														}
													}
												}
											}
										}
									}
								}
							}
						}
					}
					JOINT RightShoulder
					{
						OFFSET -7.570500 7.247704 -3.868750
						CHANNELS 3 Xrotation Yrotation Zrotation
						JOINT RightShoulder_split
						{
							OFFSET -7.570500 7.247704 -3.868750
							CHANNELS 3 Xrotation Yrotation Zrotation
							JOINT RightArm
							{
								OFFSET -9.308998 -2.777710 0.208500
								CHANNELS 3 Xrotation Yrotation Zrotation
								JOINT RightForeArm
								{
									OFFSET -29.972300 0.000000 0.000000
									CHANNELS 3 Xrotation Yrotation Zrotation
									JOINT RightHand
									{
										OFFSET -26.026505 0.000000 0.000000
										CHANNELS 3 Xrotation Yrotation Zrotation
										JOINT RightHandThumb1
										{
											OFFSET -12.240601 -7.148026 9.207092
											CHANNELS 3 Xrotation Yrotation Zrotation
											JOINT RightHandThumb2
											{
												OFFSET -4.138618 -2.389435 2.389433
												CHANNELS 3 Xrotation Yrotation Zrotation
												JOINT RightHandThumb3
												{
													OFFSET -2.726974 -1.574417 1.574421
													CHANNELS 3 Xrotation Yrotation Zrotation
													JOINT RightHandThumb4
													{
														OFFSET -3.941010 -2.275345 2.275343
														CHANNELS 3 Xrotation Yrotation Zrotation
														End Site
														{
															OFFSET 0.000000 0.000000 0.000000
														}
													}
												}
											}
										}
										JOINT RightHandIndex1
										{
											OFFSET -24.424698 -1.985657 5.953444
											CHANNELS 3 Xrotation Yrotation Zrotation
											JOINT RightHandIndex2
											{
												OFFSET -6.426697 0.000000 0.000000
												CHANNELS 3 Xrotation Yrotation Zrotation
												JOINT RightHandIndex3
												{
													OFFSET -5.337898 0.000000 0.000000
													CHANNELS 3 Xrotation Yrotation Zrotation
													JOINT RightHandIndex4
													{
														OFFSET -4.409401 0.000000 0.000000
														CHANNELS 3 Xrotation Yrotation Zrotation
														End Site
														{
															OFFSET 0.000000 0.000000 0.000000
														}
													}
												}
											}
										}
										JOINT RightHandMiddle1
										{
											OFFSET -23.810097 0.000000 0.000000
											CHANNELS 3 Xrotation Yrotation Zrotation
											JOINT RightHandMiddle2
											{
												OFFSET -7.176498 0.000000 0.000000
												CHANNELS 3 Xrotation Yrotation Zrotation
												JOINT RightHandMiddle3
												{
													OFFSET -6.774902 0.000000 0.000000
													CHANNELS 3 Xrotation Yrotation Zrotation
													JOINT RightHandMiddle4
													{
														OFFSET -5.403328 0.000000 0.000000
														CHANNELS 3 Xrotation Yrotation Zrotation
														End Site
														{
															OFFSET 0.000000 0.000000 0.000000
														}
													}
												}
											}
										}
										JOINT RightHandRing1
										{
											OFFSET -22.908302 -0.839325 -6.020576
											CHANNELS 3 Xrotation Yrotation Zrotation
											JOINT RightHandRing2
											{
												OFFSET -6.337502 0.000000 0.000000
												CHANNELS 3 Xrotation Yrotation Zrotation
												JOINT RightHandRing3
												{
													OFFSET -5.779297 0.000000 0.000000
													CHANNELS 3 Xrotation Yrotation Zrotation
													JOINT RightHandRing4
													{
														OFFSET -4.965698 0.000000 0.000000
														CHANNELS 3 Xrotation Yrotation Zrotation
														End Site
														{
															OFFSET 0.000000 0.000000 0.000000
														}
													}
												}
											}
										}
										JOINT RightHandPinky1
										{
											OFFSET -20.037003 -1.530334 -10.950259
											CHANNELS 3 Xrotation Yrotation Zrotation
											JOINT RightHandPinky2
											{
												OFFSET -5.254700 0.000000 0.000000
												CHANNELS 3 Xrotation Yrotation Zrotation
												JOINT RightHandPinky3
												{
													OFFSET -4.810204 0.000000 0.000000
													CHANNELS 3 Xrotation Yrotation Zrotation
													JOINT RightHandPinky4
													{
														OFFSET -3.647202 0.000000 0.000000
														CHANNELS 3 Xrotation Yrotation Zrotation
														End Site
														{
															OFFSET 0.000000 0.000000 0.000000
														}
													}
												}
											}
										}
									}
								}
							}
						}
					}
				}
			}
		}
	}
	JOINT LeftUpLeg
	{
		OFFSET 15.427100 -6.655098 0.678600
		CHANNELS 3 Xrotation Yrotation Zrotation
		JOINT LeftLeg
		{
			OFFSET 4.081073 -39.591068 13.024000
			CHANNELS 3 Xrotation Yrotation Zrotation
			JOINT LeftFoot
			{
				OFFSET -4.081074 -37.707932 -15.979700
				CHANNELS 3 Xrotation Yrotation Zrotation
				JOINT LeftToeBase
				{
					OFFSET 5.346399 -15.068900 20.645000
					CHANNELS 3 Xrotation Yrotation Zrotation
					JOINT LeftToe_End
					{
						OFFSET 2.754700 0.931300 11.300900
						CHANNELS 3 Xrotation Yrotation Zrotation
						End Site
						{
							OFFSET 0.000000 0.000000 0.000000
						}
					}
				}
			}
		}
	}
	JOINT RightUpLeg
	{
		OFFSET -15.569500 -6.655098 0.678600
		CHANNELS 3 Xrotation Yrotation Zrotation
		JOINT RightLeg
		{
			OFFSET -4.081825 -39.591045 13.023800
			CHANNELS 3 Xrotation Yrotation Zrotation
			JOINT RightFoot
			{
				OFFSET 4.081824 -37.707954 -15.979600
				CHANNELS 3 Xrotation Yrotation Zrotation
				JOINT RightToeBase
				{
					OFFSET -5.346400 -15.068900 20.645000
					CHANNELS 3 Xrotation Yrotation Zrotation
					JOINT RightToe_End
					{
						OFFSET -2.754700 0.931300 11.300900
						CHANNELS 3 Xrotation Yrotation Zrotation
						End Site
						{
							OFFSET 0.000000 0.000000 0.000000
						}
					}
				}
			}
		}
	}
}
MOTION
Frames: 4
Frame Time: 0.016667
-3.555976 80.242058 -0.796827 -3.071402 -7.169788 5.182098 13.731963 0.983757 -4.410668 2.722913 0.133860 -0.943517 0.000000 0.000000 0.000000 2.720022 0.135223 -0.952573 2.743906 0.369061 0.041968 21.918282 4.192717 -0.129340 -0.000005 0.000000 -0.000000 0.619245 -1.200854 -10.994812 0.000000 0.000000 0.000000 17.248868 -24.148533 -54.371581 0.000002 -28.855370 0.000018 24.205866 -0.057591 -1.453788 -13.734190 9.516299 2.120164 12.920930 20.445744 20.805443 1.615739 -13.628068 26.911961 -0.000000 0.000001 0.000000 0.624769 4.843189 -25.352330 0.379502 2.075988 -20.715404 1.406317 3.808964 -40.517468 -0.000001 -0.000001 0.000001 0.442364 4.431071 -20.811023 0.385146 2.090941 -20.871760 1.613624 4.038432 -43.546643 -0.000000 0.000002 0.000001 0.553775 4.704300 -23.698187 0.384463 2.089139 -20.852950 1.498298 3.913807 -41.883505 -0.000000 -0.000001 -0.000000 0.677172 4.972450 -26.586877 0.385162 2.090962 -20.871733 1.415448 3.819598 -40.654785 -0.000000 0.000003 0.000000 0.265363 6.336857 17.304037 0.000000 0.000000 0.000000 14.561909 17.232547 47.386073 -0.000003 42.148978 -0.000009 24.497997 9.178844 9.204389 -13.230989 -9.083828 -4.233054 14.743240 -13.848442 -17.282890 3.139531 -1.609834 -20.186474 -0.000000 -0.000001 0.000000 0.733516 -4.698514 31.512389 0.755288 -2.544514 33.060137 0.755372 -2.544650 33.062145 0.000000 0.000000 -0.000000 0.728921 -4.705632 31.511351 0.755269 -2.544482 33.059915 0.846411 -2.679176 35.059737 0.000000 -0.000000 0.000000 0.816077 -4.842840 33.512029 0.711551 -2.476078 32.061280 0.800305 -2.612303 34.060897 0.000002 0.000001 0.000000 0.908005 -4.976939 35.513343 0.755271 -2.544499 33.059919 0.755379 -2.544645 33.062145 0.000001 -0.000000 -0.000000 -66.420058 5.077444 7.526098 53.302561 0.723205 -4.733771 4.380768 -0.681984 -0.986800 -1.242527 0.000002 -0.000001 -0.000000 -0.000000 0.000000 -14.649084 -7.665798 -5.884853 51.113113 7.874826 3.952640 -33.005151 4.472314 -9.927194 -5.454422 0.000003 0.000001 0.000000 0.000000 0.000000 
-3.647896 80.252609 -0.983180 -2.959421 -7.106103 5.386070 13.854377 0.994903 -4.449199 2.787337 0.158804 -0.935779 0.000000 0.000000 0.000000 2.784214 0.161848 -0.946241 2.763239 0.364233 0.009163 21.835054 4.220366 -0.349117 -0.000000 -0.000000 0.000000 0.629837 -1.288738 -11.002610 0.000000 0.000000 0.000000 17.403964 -24.407264 -54.849219 0.000006 -28.505412 -0.000000 25.130399 -0.221164 -1.029092 -13.734127 9.516108 2.120210 12.920904 20.445871 20.805386 1.615774 -13.627996 26.911900 0.000002 0.000001 0.000001 0.626816 4.847525 -25.401764 0.414673 2.166690 -21.665876 1.439916 3.847848 -41.020661 0.000000 -0.000000 0.000001 0.439036 4.422256 -20.716730 0.416238 2.170638 -21.707583 1.638030 4.063881 -43.891991 -0.000000 0.000002 0.000000 0.551156 4.698285 -23.632070 0.415325 2.168386 -21.683626 1.500108 3.915812 -41.909959 -0.000001 -0.000000 0.000001 0.675542 4.969150 -26.548964 0.416238 2.170652 -21.707571 1.436633 3.844077 -40.971689 -0.000002 -0.000000 0.000000 0.222706 6.699101 17.382119 0.000000 0.000000 0.000000 14.920430 17.286558 46.635972 0.000009 43.116047 -0.000016 24.299866 9.494708 9.224557 -13.085044 -9.143590 -3.844994 14.660637 -13.964656 -17.694039 3.136756 -1.610405 -20.186230 0.000001 -0.000000 -0.000001 0.754216 -4.732098 32.001499 0.777129 -2.577724 33.548872 0.777199 -2.577819 33.550333 0.000000 0.000003 -0.000000 0.749939 -4.739700 32.000539 0.777116 -2.577717 33.548687 0.869376 -2.711553 35.548023 0.000001 -0.000002 -0.000000 0.838289 -4.876163 34.001341 0.732783 -2.509643 32.550011 0.822695 -2.645093 34.549125 -0.000001 -0.000000 0.000000 0.931365 -5.009463 36.002815 0.777117 -2.577713 33.548694 0.777192 -2.577806 33.550330 -0.000002 -0.000000 -0.000000 -66.353239 4.742343 6.832065 49.080418 0.620495 -4.355813 7.545768 -0.623196 0.228630 -0.940479 -0.000000 -0.000000 -0.000001 0.000000 -0.000000 -14.993682 -7.614998 -5.987700 51.241049 7.796829 3.948565 -32.921058 4.456216 -9.981931 -5.455715 -0.000001 -0.000001 -0.000000 0.000000 -0.000000 
-3.723073 80.279465 -1.233696 -2.787919 -7.122885 5.513490 13.973566 1.007649 -4.436983 2.847390 0.187923 -0.917954 0.000000 0.000000 0.000000 2.844043 0.192474 -0.929923 2.777816 0.367202 -0.028368 21.720487 4.314694 -0.576001 -0.000003 0.000000 0.000000 0.640723 -1.333958 -11.005093 0.000000 0.000000 0.000000 17.374241 -24.472993 -55.481637 -0.000001 -28.210928 -0.000004 25.772435 -0.259554 -0.556245 -13.734057 9.515845 2.120272 12.920877 20.446103 20.805275 1.615834 -13.627902 26.911854 -0.000001 0.000001 0.000005 0.627461 4.848891 -25.418655 0.447871 2.248412 -22.528223 1.468764 3.880703 -41.449000 -0.000001 0.000000 -0.000000 0.435057 4.411620 -20.603349 0.446253 2.244514 -22.486747 1.640298 4.066233 -43.923837 0.000001 0.000000 0.000000 0.547666 4.690292 -23.544186 0.445575 2.242859 -22.469488 1.477512 3.890567 -41.578049 0.000000 0.000000 0.000000 0.672789 4.963658 -26.486661 0.446251 2.244531 -22.486738 1.437044 3.844560 -40.977887 0.000000 0.000001 0.000000 0.180818 7.065461 17.444802 0.000000 0.000000 0.000000 15.301577 17.417498 45.815037 -0.000006 44.069508 0.000021 24.288093 9.779412 9.317236 -12.936526 -9.203474 -3.451735 14.577135 -14.082811 -18.110740 3.133925 -1.611116 -20.185960 -0.000000 -0.000000 -0.000000 0.772973 -4.762057 32.439813 0.796954 -2.607351 33.987062 0.796956 -2.607354 33.987691 -0.000001 0.000001 -0.000001 0.769048 -4.770132 32.439003 0.796951 -2.607330 33.986970 0.890184 -2.740409 35.985466 -0.000001 0.000004 -0.000001 0.858434 -4.905894 34.439938 0.752101 -2.539620 32.988260 0.842997 -2.674285 34.986520 -0.000000 0.000000 0.000000 0.952547 -5.038469 36.441504 0.796945 -2.607328 33.986994 0.796981 -2.607369 33.987708 0.000001 0.000000 0.000000 -66.158469 4.393741 6.139933 44.923360 -0.038118 -3.866518 11.190093 -0.523595 1.613016 -0.917260 0.000001 -0.000001 0.000001 -0.000000 0.000000 -15.475677 -7.601118 -5.998288 51.332263 7.800093 3.928824 -32.698083 4.448210 -10.094200 -5.451051 -0.000001 0.000003 -0.000000 -0.000001 -0.000000 
-3.782724 80.327858 -1.548843 -2.532647 -7.165089 5.590727 14.095121 1.015861 -4.411562 2.901649 0.218670 -0.897720 0.000000 0.000000 0.000000 2.898103 0.224245 -0.911136 2.785688 0.373450 -0.062493 21.560416 4.426316 -0.753392 0.000003 -0.000000 0.000000 0.651117 -1.376266 -11.000298 0.000000 0.000000 0.000000 17.231048 -24.456447 -56.127626 -0.000014 -27.965527 -0.000001 26.138111 -0.195734 -0.169283 -13.733956 9.515505 2.120335 12.920869 20.446335 20.805117 1.615904 -13.627776 26.911763 -0.000002 -0.000000 0.000001 0.626471 4.846812 -25.397575 0.478090 2.319889 -23.286473 1.492252 3.907069 -41.794730 0.000001 -0.000002 -0.000001 0.430234 4.398731 -20.466156 0.475169 2.313101 -23.214102 1.618474 4.043503 -43.615153 0.000001 -0.000001 0.000000 0.543124 4.679801 -23.429750 0.474908 2.312486 -23.207601 1.434029 3.841086 -40.933044 0.000001 0.000003 0.000001 0.668757 4.955529 -26.394952 0.475158 2.313087 -23.214100 1.414909 3.818989 -40.646517 -0.000001 -0.000002 -0.000000 0.141481 7.412041 17.493923 0.000000 0.000000 0.000000 15.609468 17.553257 45.040299 0.000024 44.952661 -0.000043 24.556092 10.030625 9.405989 -12.785922 -9.263313 -3.054566 14.492989 -14.202488 -18.531620 3.131087 -1.611848 -20.185671 0.000000 -0.000003 0.000001 0.789435 -4.787889 32.818977 0.814270 -2.632825 34.366315 0.814269 -2.632821 34.365950 -0.000000 0.000002 -0.000000 0.785828 -4.796421 32.818332 0.814292 -2.632837 34.366339 0.908353 -2.765226 36.363791 -0.000001 -0.000000 0.000000 0.876131 -4.931596 34.819362 0.769006 -2.565430 33.367615 0.860740 -2.699430 35.364814 0.000000 0.000000 -0.000000 0.971136 -5.063523 36.821061 0.814298 -2.632859 34.366336 0.814258 -2.632788 34.365947 -0.000001 0.000002 0.000000 -65.917650 3.919409 5.872448 41.833877 -0.061747 -3.420224 13.589898 -0.494653 1.655488 -0.587599 0.000000 -0.000000 0.000002 -0.000000 -0.000000 -16.107596 -7.615381 -5.941690 51.382997 7.841937 3.898081 -32.355214 4.432283 -10.234247 -5.444810 -0.000000 0.000003 0.000000 0.000000 0.000000 
